<svg width="40" height="40" viewBox="0 0 40 40" fill="none" xmlns="http://www.w3.org/2000/svg">
<path d="M0 20C0 8.95431 8.95431 0 20 0V0C31.0457 0 40 8.95431 40 20V20C40 31.0457 31.0457 40 20 40V40C8.95431 40 0 31.0457 0 20V20Z" fill="#374151"/>
<g clip-path="url(#clip0_3402_9183)">
<path d="M20.0005 12.5C19.7474 12.5 19.4974 12.5444 19.2599 12.6301L10.4942 15.8452C10.1974 15.9563 10.0005 16.2419 10.0005 16.5625C10.0005 16.8831 10.1974 17.1687 10.4942 17.2798L12.3036 17.9431C11.7911 18.762 11.5005 19.73 11.5005 20.7488V21.6406C11.5005 22.542 11.163 23.4719 10.8036 24.2051C10.6005 24.6177 10.3692 25.0239 10.1005 25.3984C10.0005 25.5349 9.97236 25.7126 10.0286 25.8745C10.0849 26.0364 10.2161 26.157 10.3786 26.1982L12.3786 26.7061C12.5099 26.741 12.6505 26.7156 12.7661 26.6426C12.8817 26.5696 12.963 26.449 12.988 26.3125C13.2567 24.9541 13.1224 23.7354 12.9224 22.8625C12.8224 22.4119 12.688 21.9517 12.5005 21.5295V20.7488C12.5005 19.7903 12.8192 18.8857 13.3724 18.1621C13.7755 17.6702 14.2974 17.2734 14.9099 17.0291L19.8161 15.0708C20.0724 14.9692 20.363 15.0962 20.463 15.3564C20.563 15.6167 20.438 15.9119 20.1817 16.0134L15.2755 17.9717C14.888 18.1272 14.5474 18.3652 14.2692 18.6572L19.2567 20.4854C19.4942 20.571 19.7442 20.6155 19.9974 20.6155C20.2505 20.6155 20.5005 20.571 20.738 20.4854L29.5067 17.2798C29.8036 17.1719 30.0005 16.8831 30.0005 16.5625C30.0005 16.2419 29.8036 15.9563 29.5067 15.8452L20.7411 12.6301C20.5036 12.5444 20.2536 12.5 20.0005 12.5ZM14.0005 24.4336C14.0005 25.554 16.688 26.7188 20.0005 26.7188C23.313 26.7188 26.0005 25.554 26.0005 24.4336L25.5224 19.8188L21.0786 21.4502C20.7317 21.5771 20.3661 21.6406 20.0005 21.6406C19.6349 21.6406 19.2661 21.5771 18.9224 21.4502L14.4786 19.8188L14.0005 24.4336Z" fill="#F9FAFB"/>
</g>
<defs>
<clipPath id="clip0_3402_9183">
<rect width="20" height="20" fill="white" transform="translate(10 10)"/>
</clipPath>
</defs>
</svg>
